<svg width="18" height="12" viewBox="0 0 18 12" fill="none" xmlns="http://www.w3.org/2000/svg">
<path fill-rule="evenodd" clip-rule="evenodd" d="M17.667 1.66666C17.667 1.11437 17.2193 0.666656 16.667 0.666656H15.667C15.1147 0.666656 14.667 1.11437 14.667 1.66666V10.3333C14.667 10.8856 15.1147 11.3333 15.667 11.3333H16.667C17.2193 11.3333 17.667 10.8856 17.667 10.3333V1.66666ZM11.0003 2.99999H12.0003C12.5526 2.99999 13.0003 3.44771 13.0003 3.99999V10.3333C13.0003 10.8856 12.5526 11.3333 12.0003 11.3333H11.0003C10.448 11.3333 10.0003 10.8856 10.0003 10.3333V3.99999C10.0003 3.44771 10.448 2.99999 11.0003 2.99999ZM7.33366 5.33332H6.33366C5.78137 5.33332 5.33366 5.78104 5.33366 6.33332V10.3333C5.33366 10.8856 5.78137 11.3333 6.33366 11.3333H7.33366C7.88594 11.3333 8.33366 10.8856 8.33366 10.3333V6.33332C8.33366 5.78104 7.88594 5.33332 7.33366 5.33332ZM3.66699 8.33332C3.66699 7.78104 3.21928 7.33332 2.66699 7.33332H1.66699C1.11471 7.33332 0.666992 7.78104 0.666992 8.33332V10.3333C0.666992 10.8856 1.11471 11.3333 1.66699 11.3333H2.66699C3.21928 11.3333 3.66699 10.8856 3.66699 10.3333V8.33332Z" fill="black"/>
</svg>
