<svg width="21" height="15" viewBox="0 0 21 15" fill="none" xmlns="http://www.w3.org/2000/svg">
<path fill-rule="evenodd" clip-rule="evenodd" d="M10.3341 3.57391C12.5588 3.574 14.6985 4.4117 16.3108 5.91385C16.4323 6.02982 16.6263 6.02836 16.7459 5.91057L17.9065 4.76273C17.9671 4.70299 18.0008 4.62207 18.0003 4.53787C17.9998 4.45367 17.9651 4.37314 17.9038 4.3141C13.6719 0.339759 6.99557 0.339759 2.76365 4.3141C2.70235 4.3731 2.66756 4.4536 2.667 4.5378C2.66643 4.622 2.70013 4.70295 2.76064 4.76273L3.92159 5.91057C4.04109 6.02853 4.23531 6.03 4.35665 5.91385C5.96921 4.4116 8.10912 3.5739 10.3341 3.57391ZM10.3325 7.29946C11.5562 7.29939 12.7363 7.75599 13.6434 8.58055C13.766 8.69757 13.9593 8.69503 14.0789 8.57483L15.2395 7.39767C15.3006 7.33593 15.3345 7.25216 15.3336 7.16512C15.3328 7.07808 15.2972 6.99503 15.2348 6.93454C12.4725 4.35517 8.19477 4.35517 5.43249 6.93454C5.37009 6.99503 5.33449 7.07812 5.33367 7.16519C5.33285 7.25226 5.36688 7.33601 5.42813 7.39767L6.58838 8.57483C6.70798 8.69503 6.90125 8.69757 7.02394 8.58055C7.93043 7.75653 9.10955 7.29997 10.3325 7.29946ZM12.6669 10.0231C12.6687 10.1085 12.6344 10.1909 12.5721 10.2508L10.5573 12.2419C10.4983 12.3004 10.4178 12.3333 10.3337 12.3333C10.2497 12.3333 10.1692 12.3004 10.1101 12.2419L8.09505 10.2508C8.0328 10.1908 7.99855 10.1084 8.0004 10.023C8.00224 9.93753 8.04002 9.85661 8.1048 9.79932C9.3915 8.73357 11.276 8.73357 12.5627 9.79932C12.6274 9.85665 12.6651 9.9376 12.6669 10.0231Z" fill="black"/>
</svg>
